<?xml version="1.0" encoding="UTF-8"?><svg id="Layer_1" xmlns="http://www.w3.org/2000/svg" xmlns:xlink="http://www.w3.org/1999/xlink" viewBox="0 0 233.84 98.02"><defs><style>.cls-1{fill:url(#New_Gradient_Swatch);}.cls-2{fill:url(#New_Gradient_Swatch-3);}.cls-3{fill:url(#New_Gradient_Swatch-2);}</style><linearGradient id="New_Gradient_Swatch" x1="-360.9" y1="450.03" x2="687.76" y2="-393.64" gradientUnits="userSpaceOnUse"><stop offset="0" stop-color="#2d94f1"/><stop offset=".34" stop-color="#2acedb"/><stop offset=".63" stop-color="#e341d7"/><stop offset="1" stop-color="#e04f56"/></linearGradient><linearGradient id="New_Gradient_Swatch-2" x1="-403.57" y1="403.2" x2="645.09" y2="-440.47" xlink:href="#New_Gradient_Swatch"/><linearGradient id="New_Gradient_Swatch-3" x1="-335.59" y1="475.27" x2="713.07" y2="-368.4" xlink:href="#New_Gradient_Swatch"/></defs><g id="icon"><polygon id="center-1" class="cls-1" points="131.3 79.05 164.54 45.39 150.91 31.96 126.62 56.68 126.62 2.34 107.44 2.34 107.44 57.1 82.72 31.96 69.08 45.39 102.32 79.05 69.08 79.05 69.08 98.02 164.76 98.02 164.76 79.05 131.3 79.05"/><polygon id="left-1" class="cls-3" points="38.14 95.67 0 57.53 0 38.35 38.14 0 51.78 13.64 19.18 46.24 19.18 49.65 51.78 82.25 38.14 95.67"/><polygon id="right-1" class="cls-2" points="195.7 95.67 182.06 82.25 214.66 49.65 214.66 46.24 182.06 13.64 195.7 0 233.84 38.35 233.84 57.53 195.7 95.67"/></g></svg>